<mxfile host="app.diagrams.net" modified="2021-12-21T15:00:23.608Z" agent="5.0 (Windows NT 10.0; Win64; x64) AppleWebKit/537.36 (KHTML, like Gecko) Chrome/95.0.4638.69 Safari/537.36 OPR/81.0.4196.61" etag="CLhyGnfcdi_AkdpczBUN" version="16.0.0" type="github">
  <diagram id="k7lWIKqvjzYtwFUY9pzX" name="Page-1">
    <mxGraphModel dx="1376" dy="348" grid="1" gridSize="10" guides="1" tooltips="1" connect="1" arrows="1" fold="1" page="1" pageScale="1" pageWidth="850" pageHeight="1100" math="0" shadow="0">
      <root>
        <mxCell id="0" />
        <mxCell id="1" parent="0" />
        <mxCell id="IZUeb8i_s04Lapq4pkGG-23" style="edgeStyle=orthogonalEdgeStyle;rounded=0;orthogonalLoop=1;jettySize=auto;html=1;endArrow=classic;endFill=1;endSize=6;dashed=1;" edge="1" parent="1" source="IZUeb8i_s04Lapq4pkGG-5" target="IZUeb8i_s04Lapq4pkGG-13">
          <mxGeometry relative="1" as="geometry" />
        </mxCell>
        <mxCell id="IZUeb8i_s04Lapq4pkGG-5" value="ReiseAnbieterController" style="swimlane;fontStyle=1;align=center;verticalAlign=top;childLayout=stackLayout;horizontal=1;startSize=26;horizontalStack=0;resizeParent=1;resizeParentMax=0;resizeLast=0;collapsible=1;marginBottom=0;" vertex="1" parent="1">
          <mxGeometry x="30" y="197" width="160" height="34" as="geometry" />
        </mxCell>
        <mxCell id="IZUeb8i_s04Lapq4pkGG-7" value="" style="line;strokeWidth=1;fillColor=none;align=left;verticalAlign=middle;spacingTop=-1;spacingLeft=3;spacingRight=3;rotatable=0;labelPosition=right;points=[];portConstraint=eastwest;" vertex="1" parent="IZUeb8i_s04Lapq4pkGG-5">
          <mxGeometry y="26" width="160" height="8" as="geometry" />
        </mxCell>
        <mxCell id="IZUeb8i_s04Lapq4pkGG-22" style="edgeStyle=orthogonalEdgeStyle;rounded=0;orthogonalLoop=1;jettySize=auto;html=1;endArrow=classic;endFill=1;endSize=6;dashed=1;" edge="1" parent="1" source="IZUeb8i_s04Lapq4pkGG-9" target="IZUeb8i_s04Lapq4pkGG-13">
          <mxGeometry relative="1" as="geometry" />
        </mxCell>
        <mxCell id="IZUeb8i_s04Lapq4pkGG-9" value="GlobalConfig" style="swimlane;fontStyle=1;align=center;verticalAlign=top;childLayout=stackLayout;horizontal=1;startSize=26;horizontalStack=0;resizeParent=1;resizeParentMax=0;resizeLast=0;collapsible=1;marginBottom=0;" vertex="1" parent="1">
          <mxGeometry x="290" y="20" width="160" height="34" as="geometry" />
        </mxCell>
        <mxCell id="IZUeb8i_s04Lapq4pkGG-11" value="" style="line;strokeWidth=1;fillColor=none;align=left;verticalAlign=middle;spacingTop=-1;spacingLeft=3;spacingRight=3;rotatable=0;labelPosition=right;points=[];portConstraint=eastwest;" vertex="1" parent="IZUeb8i_s04Lapq4pkGG-9">
          <mxGeometry y="26" width="160" height="8" as="geometry" />
        </mxCell>
        <mxCell id="IZUeb8i_s04Lapq4pkGG-13" value="Context" style="swimlane;fontStyle=1;align=center;verticalAlign=top;childLayout=stackLayout;horizontal=1;startSize=26;horizontalStack=0;resizeParent=1;resizeParentMax=0;resizeLast=0;collapsible=1;marginBottom=0;" vertex="1" parent="1">
          <mxGeometry x="280" y="164" width="180" height="100" as="geometry" />
        </mxCell>
        <mxCell id="IZUeb8i_s04Lapq4pkGG-14" value="- algo: Strategy" style="text;strokeColor=none;fillColor=none;align=left;verticalAlign=top;spacingLeft=4;spacingRight=4;overflow=hidden;rotatable=0;points=[[0,0.5],[1,0.5]];portConstraint=eastwest;" vertex="1" parent="IZUeb8i_s04Lapq4pkGG-13">
          <mxGeometry y="26" width="180" height="26" as="geometry" />
        </mxCell>
        <mxCell id="IZUeb8i_s04Lapq4pkGG-15" value="" style="line;strokeWidth=1;fillColor=none;align=left;verticalAlign=middle;spacingTop=-1;spacingLeft=3;spacingRight=3;rotatable=0;labelPosition=right;points=[];portConstraint=eastwest;" vertex="1" parent="IZUeb8i_s04Lapq4pkGG-13">
          <mxGeometry y="52" width="180" height="8" as="geometry" />
        </mxCell>
        <mxCell id="IZUeb8i_s04Lapq4pkGG-16" value="+ verifiyBook (e : Book) : Status&#xa;~ setAlgo(a : Strategy)" style="text;strokeColor=none;fillColor=none;align=left;verticalAlign=top;spacingLeft=4;spacingRight=4;overflow=hidden;rotatable=0;points=[[0,0.5],[1,0.5]];portConstraint=eastwest;" vertex="1" parent="IZUeb8i_s04Lapq4pkGG-13">
          <mxGeometry y="60" width="180" height="40" as="geometry" />
        </mxCell>
        <mxCell id="IZUeb8i_s04Lapq4pkGG-21" style="edgeStyle=orthogonalEdgeStyle;rounded=0;orthogonalLoop=1;jettySize=auto;html=1;endArrow=diamond;endFill=0;endSize=12;" edge="1" parent="1" source="IZUeb8i_s04Lapq4pkGG-17" target="IZUeb8i_s04Lapq4pkGG-13">
          <mxGeometry relative="1" as="geometry" />
        </mxCell>
        <mxCell id="IZUeb8i_s04Lapq4pkGG-17" value="&lt;i&gt;&#xa;Strategy" style="swimlane;fontStyle=1;align=center;verticalAlign=top;childLayout=stackLayout;horizontal=1;startSize=40;horizontalStack=0;resizeParent=1;resizeParentMax=0;resizeLast=0;collapsible=1;marginBottom=0;" vertex="1" parent="1">
          <mxGeometry x="530" y="177" width="180" height="74" as="geometry" />
        </mxCell>
        <mxCell id="IZUeb8i_s04Lapq4pkGG-19" value="" style="line;strokeWidth=1;fillColor=none;align=left;verticalAlign=middle;spacingTop=-1;spacingLeft=3;spacingRight=3;rotatable=0;labelPosition=right;points=[];portConstraint=eastwest;" vertex="1" parent="IZUeb8i_s04Lapq4pkGG-17">
          <mxGeometry y="40" width="180" height="8" as="geometry" />
        </mxCell>
        <mxCell id="IZUeb8i_s04Lapq4pkGG-20" value="+ verifiyBook (e : Book) : Status" style="text;strokeColor=none;fillColor=none;align=left;verticalAlign=top;spacingLeft=4;spacingRight=4;overflow=hidden;rotatable=0;points=[[0,0.5],[1,0.5]];portConstraint=eastwest;" vertex="1" parent="IZUeb8i_s04Lapq4pkGG-17">
          <mxGeometry y="48" width="180" height="26" as="geometry" />
        </mxCell>
        <mxCell id="IZUeb8i_s04Lapq4pkGG-28" style="edgeStyle=orthogonalEdgeStyle;rounded=0;orthogonalLoop=1;jettySize=auto;html=1;dashed=1;endArrow=classic;endFill=1;endSize=6;" edge="1" parent="1" source="IZUeb8i_s04Lapq4pkGG-24" target="IZUeb8i_s04Lapq4pkGG-17">
          <mxGeometry relative="1" as="geometry" />
        </mxCell>
        <mxCell id="IZUeb8i_s04Lapq4pkGG-24" value="SwissGAAPFER" style="swimlane;fontStyle=1;align=center;verticalAlign=top;childLayout=stackLayout;horizontal=1;startSize=26;horizontalStack=0;resizeParent=1;resizeParentMax=0;resizeLast=0;collapsible=1;marginBottom=0;" vertex="1" parent="1">
          <mxGeometry x="660" y="330" width="180" height="60" as="geometry" />
        </mxCell>
        <mxCell id="IZUeb8i_s04Lapq4pkGG-26" value="" style="line;strokeWidth=1;fillColor=none;align=left;verticalAlign=middle;spacingTop=-1;spacingLeft=3;spacingRight=3;rotatable=0;labelPosition=right;points=[];portConstraint=eastwest;" vertex="1" parent="IZUeb8i_s04Lapq4pkGG-24">
          <mxGeometry y="26" width="180" height="8" as="geometry" />
        </mxCell>
        <mxCell id="IZUeb8i_s04Lapq4pkGG-27" value="+ verifiyBook (e : Book) : Status" style="text;strokeColor=none;fillColor=none;align=left;verticalAlign=top;spacingLeft=4;spacingRight=4;overflow=hidden;rotatable=0;points=[[0,0.5],[1,0.5]];portConstraint=eastwest;" vertex="1" parent="IZUeb8i_s04Lapq4pkGG-24">
          <mxGeometry y="34" width="180" height="26" as="geometry" />
        </mxCell>
        <mxCell id="IZUeb8i_s04Lapq4pkGG-32" style="edgeStyle=orthogonalEdgeStyle;rounded=0;orthogonalLoop=1;jettySize=auto;html=1;dashed=1;endArrow=classic;endFill=1;endSize=6;" edge="1" parent="1" source="IZUeb8i_s04Lapq4pkGG-29" target="IZUeb8i_s04Lapq4pkGG-17">
          <mxGeometry relative="1" as="geometry" />
        </mxCell>
        <mxCell id="IZUeb8i_s04Lapq4pkGG-29" value="IFRS" style="swimlane;fontStyle=1;align=center;verticalAlign=top;childLayout=stackLayout;horizontal=1;startSize=26;horizontalStack=0;resizeParent=1;resizeParentMax=0;resizeLast=0;collapsible=1;marginBottom=0;" vertex="1" parent="1">
          <mxGeometry x="530" y="410" width="180" height="60" as="geometry" />
        </mxCell>
        <mxCell id="IZUeb8i_s04Lapq4pkGG-30" value="" style="line;strokeWidth=1;fillColor=none;align=left;verticalAlign=middle;spacingTop=-1;spacingLeft=3;spacingRight=3;rotatable=0;labelPosition=right;points=[];portConstraint=eastwest;" vertex="1" parent="IZUeb8i_s04Lapq4pkGG-29">
          <mxGeometry y="26" width="180" height="8" as="geometry" />
        </mxCell>
        <mxCell id="IZUeb8i_s04Lapq4pkGG-31" value="+ verifiyBook (e : Book) : Status" style="text;strokeColor=none;fillColor=none;align=left;verticalAlign=top;spacingLeft=4;spacingRight=4;overflow=hidden;rotatable=0;points=[[0,0.5],[1,0.5]];portConstraint=eastwest;" vertex="1" parent="IZUeb8i_s04Lapq4pkGG-29">
          <mxGeometry y="34" width="180" height="26" as="geometry" />
        </mxCell>
        <mxCell id="IZUeb8i_s04Lapq4pkGG-36" style="edgeStyle=orthogonalEdgeStyle;rounded=0;orthogonalLoop=1;jettySize=auto;html=1;dashed=1;endArrow=classic;endFill=1;endSize=6;" edge="1" parent="1" source="IZUeb8i_s04Lapq4pkGG-33" target="IZUeb8i_s04Lapq4pkGG-17">
          <mxGeometry relative="1" as="geometry" />
        </mxCell>
        <mxCell id="IZUeb8i_s04Lapq4pkGG-33" value="US_GAAP" style="swimlane;fontStyle=1;align=center;verticalAlign=top;childLayout=stackLayout;horizontal=1;startSize=26;horizontalStack=0;resizeParent=1;resizeParentMax=0;resizeLast=0;collapsible=1;marginBottom=0;" vertex="1" parent="1">
          <mxGeometry x="400" y="330" width="180" height="60" as="geometry" />
        </mxCell>
        <mxCell id="IZUeb8i_s04Lapq4pkGG-34" value="" style="line;strokeWidth=1;fillColor=none;align=left;verticalAlign=middle;spacingTop=-1;spacingLeft=3;spacingRight=3;rotatable=0;labelPosition=right;points=[];portConstraint=eastwest;" vertex="1" parent="IZUeb8i_s04Lapq4pkGG-33">
          <mxGeometry y="26" width="180" height="8" as="geometry" />
        </mxCell>
        <mxCell id="IZUeb8i_s04Lapq4pkGG-35" value="+ verifiyBook (e : Book) : Status" style="text;strokeColor=none;fillColor=none;align=left;verticalAlign=top;spacingLeft=4;spacingRight=4;overflow=hidden;rotatable=0;points=[[0,0.5],[1,0.5]];portConstraint=eastwest;" vertex="1" parent="IZUeb8i_s04Lapq4pkGG-33">
          <mxGeometry y="34" width="180" height="26" as="geometry" />
        </mxCell>
      </root>
    </mxGraphModel>
  </diagram>
</mxfile>
